<svg xmlns="http://www.w3.org/2000/svg" version="1.1" xmlns:xlink="http://www.w3.org/1999/xlink" xmlns:svgjs="http://svgjs.dev/svgjs" width="1000" height="1000" viewBox="0 0 1000 1000"><rect width="1000" height="1000" fill="#ffffff"></rect><g transform="matrix(0.7,0,0,0.7,149.57575895261272,459.348617649904)"><svg viewBox="0 0 396 46" data-background-color="#0093fb" preserveAspectRatio="xMidYMid meet" height="116" width="1000" xmlns="http://www.w3.org/2000/svg" xmlns:xlink="http://www.w3.org/1999/xlink"><defs></defs><g id="tight-bounds" transform="matrix(1,0,0,1,0.23999922109339877,0.029108261720665496)"><svg viewBox="0 0 395.52 45.94178351039242" height="45.94178351039242" width="395.52"><g><svg viewBox="0 0 472.7813621876063 54.91610788170368" height="45.94178351039242" width="395.52"><g><rect width="3.583495862659459" height="47.68402999858496" x="404.90087922162155" y="3.61603894155936" fill="#000000" opacity="1" stroke-width="0" stroke="transparent" fill-opacity="1" class="rect-o-0" data-fill-palette-color="primary" rx="1%" id="o-0" data-palette-color="#ffffff"></rect></g><g transform="matrix(1,0,0,1,0,7.5897081081081055)"><svg viewBox="0 0 395.5199999999999 39.73669166548747" height="39.73669166548747" width="395.5199999999999"><g><svg viewBox="0 0 395.5199999999999 39.73669166548747" height="39.73669166548747" width="395.5199999999999"><g><svg viewBox="0 0 395.5199999999999 39.73669166548747" height="39.73669166548747" width="395.5199999999999"><g transform="matrix(1,0,0,1,0,0)"><svg width="395.5199999999999" viewBox="-0.05000000447034836 -34.900001525878906 353.3199768066406 35.5" height="39.73669166548747" data-palette-color="#ffffff"><path d="M-0.05 0L10.85-34.3 16.5-34.3 27.4 0 22.65 0 20.3-7.65 6.7-7.65 4.35 0-0.05 0ZM7.9-11.65L19.05-11.65 14.4-26.9Q14.05-28 13.6-30.7L13.6-30.7 13.4-30.7Q12.95-27.95 12.6-26.9L12.6-26.9 7.9-11.65ZM30.85 0L30.85-34.3 44.65-34.3Q49.6-34.3 52.25-31.73 54.9-29.15 54.9-24.8L54.9-24.8Q54.9-21.6 53.3-19.25 51.7-16.9 48.8-15.95L48.8-15.95 55.7 0 50.8 0 44.45-15.15 35.25-15.15 35.25 0 30.85 0ZM35.25-19.15L44.5-19.15Q47.1-19.15 48.7-20.7 50.3-22.25 50.3-24.8L50.3-24.8Q50.3-27.4 48.8-28.85 47.3-30.3 44.5-30.3L44.5-30.3 35.25-30.3 35.25-19.15ZM60.2 0L60.2-34.3 73.2-34.3Q77.05-34.3 79.55-31.98 82.05-29.65 82.05-25.9L82.05-25.9Q82.05-23.05 80.57-20.93 79.1-18.8 76.8-18L76.8-18 76.8-17.8Q79.45-17 81.15-14.65 82.85-12.3 82.85-9.1L82.85-9.1Q82.85-6.3 81.55-4.25 80.25-2.2 78.05-1.1 75.85 0 73.2 0L73.2 0 60.2 0ZM64.6-19.55L71.9-19.55Q74.35-19.55 75.9-21.13 77.45-22.7 77.45-24.95L77.45-24.95Q77.45-27.6 76.05-28.95 74.65-30.3 72.2-30.3L72.2-30.3 64.6-30.3 64.6-19.55ZM64.6-4L72.6-4Q75.1-4 76.67-5.5 78.25-7 78.25-9.7L78.25-9.7Q78.25-12.1 76.6-13.83 74.95-15.55 72.3-15.55L72.3-15.55 64.6-15.55 64.6-4ZM87.79 0L87.79-34.3 92.19-34.3 92.19 0 87.79 0ZM105.99 0L105.99-30.3 96.64-30.3 96.64-34.3 119.74-34.3 119.74-30.3 110.39-30.3 110.39 0 105.99 0ZM124.24 0L124.24-34.3 138.04-34.3Q142.99-34.3 145.64-31.73 148.29-29.15 148.29-24.8L148.29-24.8Q148.29-21.6 146.69-19.25 145.09-16.9 142.19-15.95L142.19-15.95 149.09 0 144.19 0 137.84-15.15 128.64-15.15 128.64 0 124.24 0ZM128.64-19.15L137.89-19.15Q140.49-19.15 142.09-20.7 143.69-22.25 143.69-24.8L143.69-24.8Q143.69-27.4 142.19-28.85 140.69-30.3 137.89-30.3L137.89-30.3 128.64-30.3 128.64-19.15ZM150.29 0L161.19-34.3 166.84-34.3 177.74 0 172.99 0 170.64-7.65 157.04-7.65 154.69 0 150.29 0ZM158.24-11.65L169.39-11.65 164.74-26.9Q164.39-28 163.94-30.7L163.94-30.7 163.74-30.7Q163.29-27.95 162.94-26.9L162.94-26.9 158.24-11.65ZM192.93-14L192.93-17.85 206.33-17.85 206.33 0 203.43 0 202.48-3.8Q199.48 0.6 193.63 0.6L193.63 0.6Q187.08 0.6 183.61-3.85 180.13-8.3 180.13-17.15L180.13-17.15Q180.13-25.9 183.73-30.4 187.33-34.9 193.88-34.9L193.88-34.9Q199.48-34.9 202.91-31.75 206.33-28.6 206.33-22.6L206.33-22.6 201.83-22.6Q201.83-26.75 199.71-28.8 197.58-30.85 193.88-30.85L193.88-30.85Q189.53-30.85 187.13-27.7 184.73-24.55 184.73-18.4L184.73-18.4 184.73-15.9Q184.73-9.7 187.01-6.58 189.28-3.45 193.63-3.45L193.63-3.45Q197.88-3.45 199.86-5.85 201.83-8.25 201.83-13.2L201.83-13.2 201.83-14 192.93-14ZM213.08 0L213.08-34.3 234.23-34.3 234.23-30.3 217.48-30.3 217.48-19.55 232.03-19.55 232.03-15.55 217.48-15.55 217.48-4 234.53-4 234.53 0 213.08 0ZM251.83 0L251.83-34.3 264.08-34.3Q269.03-34.3 271.68-31.6 274.33-28.9 274.33-24.3L274.33-24.3Q274.33-19.7 271.55-16.93 268.78-14.15 264.08-14.15L264.08-14.15 256.23-14.15 256.23 0 251.83 0ZM256.23-18.15L263.93-18.15Q266.53-18.15 268.13-19.83 269.73-21.5 269.73-24.3L269.73-24.3Q269.73-27.1 268.23-28.7 266.73-30.3 263.93-30.3L263.93-30.3 256.23-30.3 256.23-18.15ZM279.17 0L279.17-34.3 283.57-34.3 283.57-4 297.57-4 297.57 0 279.17 0ZM313.27 0.6Q307.92 0.6 304.95-2.43 301.97-5.45 301.97-11.15L301.97-11.15 301.97-34.3 306.37-34.3 306.37-10.9Q306.37-7.3 308.2-5.38 310.02-3.45 313.27-3.45L313.27-3.45Q316.52-3.45 318.35-5.38 320.17-7.3 320.17-10.9L320.17-10.9 320.17-34.3 324.57-34.3 324.57-11.15Q324.57-5.45 321.6-2.43 318.62 0.6 313.27 0.6L313.27 0.6ZM341.67 0.6Q336.57 0.6 333.34-1.9 330.12-4.4 330.12-9.7L330.12-9.7 330.17-10.7 334.72-10.7 334.67-9.65Q334.67-6.6 336.54-5.03 338.42-3.45 341.47-3.45L341.47-3.45Q344.92-3.45 346.79-4.93 348.67-6.4 348.67-9.15L348.67-9.15Q348.67-11 347.64-12.18 346.62-13.35 345.09-14.05 343.57-14.75 340.92-15.6L340.92-15.6Q337.67-16.7 335.67-17.7 333.67-18.7 332.24-20.63 330.82-22.55 330.82-25.7L330.82-25.7Q330.82-30.2 333.87-32.55 336.92-34.9 341.72-34.9L341.72-34.9Q346.52-34.9 349.49-32.52 352.47-30.15 352.47-25.25L352.47-25.25 352.47-24.65 347.92-24.65 347.92-25.4Q347.92-27.95 346.19-29.4 344.47-30.85 341.82-30.85L341.82-30.85Q338.97-30.85 337.22-29.63 335.47-28.4 335.47-26.05L335.47-26.05Q335.47-24.3 336.47-23.18 337.47-22.05 338.97-21.38 340.47-20.7 343.07-19.85L343.07-19.85Q346.37-18.75 348.39-17.78 350.42-16.8 351.84-14.88 353.27-12.95 353.27-9.9L353.27-9.9Q353.27-4.4 350.14-1.9 347.02 0.6 341.67 0.6L341.67 0.6Z" opacity="1" transform="matrix(1,0,0,1,0,0)" fill="#000000" class="undefined-text-0" data-fill-palette-color="primary" id="text-0"></path></svg></g></svg></g></svg></g></svg></g><g transform="matrix(1,0,0,1,417.8652543059026,0)"><svg viewBox="0 0 54.91610788170368 54.91610788170368" height="54.91610788170368" width="54.91610788170368"><g><svg xmlns="http://www.w3.org/2000/svg" xmlns:xlink="http://www.w3.org/1999/xlink" version="1.1" x="0" y="0" viewBox="2.6999969482421875 0.643000066280365 90 90" enable-background="new 0 0 96.4 92.286" xml:space="preserve" height="54.91610788170368" width="54.91610788170368" class="icon-icon-0" data-fill-palette-color="accent" id="icon-0"><path d="M82.7 0.643h-70c-5.523 0-10 4.477-10 10v70c0 5.522 4.477 10 10 10h70c5.523 0 10-4.478 10-10v-70C92.7 5.12 88.223 0.643 82.7 0.643zM68.999 53.37H55.427v13.572c0 4.267-3.459 7.727-7.727 7.727s-7.727-3.46-7.727-7.727V53.37H26.401c-4.268 0-7.727-3.459-7.727-7.727s3.459-7.727 7.727-7.727h13.572V24.344c0-4.268 3.459-7.727 7.727-7.727s7.727 3.459 7.727 7.727v13.572h13.572c4.267 0 7.727 3.459 7.727 7.727S73.265 53.37 68.999 53.37z" fill="#000000" data-fill-palette-color="accent"></path></svg></g></svg></g></svg></g></svg><rect width="395.52" height="45.94178351039242" fill="none" stroke="none" visibility="hidden"></rect></g></svg></g></svg>